# xmcd
#
# Track frame offsets:
#	150
#	16495
#	26475
#	41177
#	51942
#	60252
#	76182
#	87122
#	99142
#	109765
#	121172
#	135560
#	147040
#	155222
#	169512
#	182530
#
# Disc length: 2563 seconds
# Revision: 0
# Processed by: cddbd v1.5.2PL0 Copyright (c) Steve Scherf et al.
# Submitted via: dBpowerAMP V12.0
#
DISCID=c00a0110
DTITLE=Tom Jones - The Legend
DYEAR=2007
DGENRE=Pop
TTITLE0=She's A Lady
TTITLE1=Spanish Harlem
TTITLE2=Unchained Melody
TTITLE3=Green Green Grass Of Home
TTITLE4=Starting Over
TTITLE5=My Way
TTITLE6=Try A Little Tenderness
TTITLE7=All By Myself
TTITLE8=Fever
TTITLE9=The Most Beautiful Girl In The World
TTITLE10=Help Me Make It Through The Night
TTITLE11=You Win Again
TTITLE12=On The Road Again
TTITLE13=You've Lost That Loving Feeling
TTITLE14=As Time Goes By
TTITLE15=I Thank You
EXTD=
EXTT0=
EXTT1=
EXTT2=
EXTT3=
EXTT4=
EXTT5=
EXTT6=
EXTT7=
EXTT8=
EXTT9=
EXTT10=
EXTT11=
EXTT12=
EXTT13=
EXTT14=
EXTT15=
PLAYORDER=
